<svg xmlns="http://www.w3.org/2000/svg" fill="none" viewBox="0 0 128 128">
	<rect width="128" height="128" fill="#F67427" />
	<path fill="#fff" fill-rule="evenodd"
				d="M85.48 64.87a35.72 35.72 0 013.04 11.18c.38 3.86.02 7.74-1.04 11.23a25.68 25.68 0 01-4.45 8.58 23.16 23.16 0 01-10.6 7.5c-.73.26-1.47.46-2.23.6a1.6 1.6 0 01-1.49-.46 1.66 1.66 0 01-.42-1.52l.46-2.2c.21-1.17.49-2.78.64-4.55.15-1.95.14-3.63 0-5.13a19.56 19.56 0 00-3.1-8.92 52.6 52.6 0 00-2.83-4.2c-.95-1.28-2.1-2.73-3.76-4.73-.15-.16-.28-.33-.44-.52l-.59-.7-.34-.4c-.01 0-.87-1.02-1.18-1.41a39.01 39.01 0 01-3.2-4.52 35.13 35.13 0 01-4.4-10.8 29.3 29.3 0 01-.2-11.46c.6-3.28 1.86-6.43 3.64-9.12 1.45-2.2 3.2-4.09 5.19-5.62a21.5 21.5 0 017.22-3.65 1.61 1.61 0 011.49.36c.4.36.61.9.55 1.44a43.5 43.5 0 00-.4 6.99c.05 1.88.23 3.58.55 5.07.34 1.64.87 3.15 1.57 4.52.61 1.19 1.35 2.34 2.39 3.72a59.28 59.28 0 003.2 3.85c.17.22.36.41.53.59.13.13.25.25.41.44.23.27.5.55.76.82l.24.24c.16.16.32.35.52.57l.8.89a43.09 43.09 0 017.47 11.32zM56.4 86.23c.77 1.6 1.26 3.32 1.43 4.96.17 1.68 0 3.45-.5 4.98a11.2 11.2 0 01-2.07 3.8 10.63 10.63 0 01-4.32 3.11 1.73 1.73 0 01-1.67-.23 1.57 1.57 0 01-.6-1.53c.1-.6.18-1.13.22-1.63.07-.85.07-1.6 0-2.26a8.34 8.34 0 00-1.44-3.96 22.6 22.6 0 00-1.32-1.86 51.8 51.8 0 00-1.74-2.1l-.03-.02a10.41 10.41 0 00-.47-.52l-.15-.17-.57-.65c-.48-.54-.97-1.2-1.48-1.99a15.19 15.19 0 01-2.05-4.8 12.38 12.38 0 01-.1-5.08 10.6 10.6 0 015.93-7.6 1.73 1.73 0 011.66.13c.49.32.76.87.72 1.44-.03.43-.07 1.09-.05 1.78.02.83.1 1.59.25 2.24.16.73.4 1.4.74 2 .36.67.77 1.22 1.12 1.67.46.57.94 1.12 1.44 1.64l.06.07.23.25.15.14c.13.15.26.29.4.42l.1.1.26.26.38.4a18.95 18.95 0 013.47 5v.01z"
				clip-rule="evenodd" />
</svg>
