<?xml version="1.0" encoding="UTF-8"?>
<svg xmlns="http://www.w3.org/2000/svg" xmlns:xlink="http://www.w3.org/1999/xlink" viewBox="0 0 96 96" width="96px" height="96px">
<g id="surface15042582">
<path style=" stroke:none;fill-rule:nonzero;fill:rgb(100%,100%,100%);fill-opacity:1;" d="M 79 86 L 61 86 C 58.238281 86 56 83.761719 56 81 L 56 63 C 56 60.789062 54.210938 59 52 59 L 44 59 C 41.789062 59 40 60.789062 40 63 L 40 81 C 40 83.761719 37.761719 86 35 86 L 17 86 C 14.238281 86 12 83.761719 12 81 L 12 42.824219 C 12 38.226562 14.109375 33.882812 17.71875 31.039062 L 46.140625 8.640625 C 47.230469 7.785156 48.769531 7.785156 49.855469 8.640625 L 78.285156 31.039062 C 81.894531 33.882812 84 38.226562 84 42.820312 L 84 81 C 84 83.761719 81.761719 86 79 86 Z M 79 86 "/>
</g>
</svg>
