<?xml version="1.0" encoding="UTF-8"?>
<svg width="1026px" height="1026px" viewBox="0 0 1026 1026" version="1.1" xmlns="http://www.w3.org/2000/svg" xmlns:xlink="http://www.w3.org/1999/xlink">
    <title>Untitled 8</title>
    <g id="Page-1" stroke="none" stroke-width="1" fill="none" fill-rule="evenodd">
        <g id="safari-pinned-tab" fill="#000000" fill-rule="nonzero">
            <g id="Group" transform="translate(512.800000, 513.000000) scale(-1, 1) rotate(-180.000000) translate(-512.800000, -513.000000) translate(0.300000, 0.500000)">
                <path d="M512.7,0.5 C795.469792,0.5 1024.7,229.730208 1024.7,512.5 C1024.7,795.269792 795.469792,1024.5 512.7,1024.5 C229.930208,1024.5 0.7,795.269792 0.7,512.5 C0.7,229.730208 229.930208,0.5 512.7,0.5 Z M512.7,87.5 C278.529333,87.5 88.7,277.329333 88.7,511.5 C88.7,745.670667 278.529333,935.5 512.7,935.5 C746.870667,935.5 936.7,745.670667 936.7,511.5 C936.7,277.329333 746.870667,87.5 512.7,87.5 Z M515.2,137.5 C722.620497,137.5 890.75638,305.400943 890.75638,512.5 C890.75638,719.599057 722.620497,887.5 515.2,887.5 C307.779503,887.5 139.64362,719.599057 139.64362,512.5 C139.64362,305.400943 307.779503,137.5 515.2,137.5 Z M437.7,310.5 C302.941409,310.5 193.7,419.741409 193.7,554.5 C193.7,689.258591 302.941409,798.5 437.7,798.5 C572.458591,798.5 681.7,689.258591 681.7,554.5 C681.7,419.741409 572.458591,310.5 437.7,310.5 Z M437.2,360.5 C544.622717,360.5 631.7,447.136887 631.7,554 C631.7,660.863113 544.622717,747.5 437.2,747.5 C329.777283,747.5 242.7,660.863113 242.7,554 C242.7,447.136887 329.777283,360.5 437.2,360.5 Z M512.2,433.5 C468.293,433.5 432.7,469.093 432.7,513 C432.7,556.907 468.293,592.5 512.2,592.5 C556.107,592.5 591.7,556.907 591.7,513 C591.7,469.093 556.107,433.5 512.2,433.5 Z M493.2,513.5 C507.559849,513.5 519.2,525.141132 519.2,539.5 C519.2,553.858868 507.559849,565.5 493.2,565.5 C478.840151,565.5 467.2,553.858868 467.2,539.5 C467.2,525.141132 478.840151,513.5 493.2,513.5 Z" id="Shape"></path>
            </g>
        </g>
    </g>
</svg>